<?xml version="1.0" standalone="no"?><!DOCTYPE svg PUBLIC "-//W3C//DTD SVG 1.1//EN" "http://www.w3.org/Graphics/SVG/1.1/DTD/svg11.dtd"><svg t="1526960728454" class="icon" style="" viewBox="0 0 1024 1024" version="1.1" xmlns="http://www.w3.org/2000/svg" p-id="6489" xmlns:xlink="http://www.w3.org/1999/xlink" width="40" height="40"><defs><style type="text/css"></style></defs><path d="M1022.306364 319.860915c-14.947324-164.51903-131.394657-283.880993-277.126142-283.880993-97.088678 0-185.984884 52.246707-236.006231 135.98323-49.568398-84.819663-134.821317-136.002923-230.354213-136.002924C133.107987 35.960228 16.64096 155.322192 1.71333 319.841222c-1.181607 7.266881-6.026194 45.511549 8.704502 107.880685 21.229532 89.959652 70.266208 171.785911 141.773102 236.577341l356.746735 323.740524 362.871397-323.720831c71.506895-64.811124 120.54357-146.617689 141.773102-236.597034 14.730696-62.349443 9.886109-100.594111 8.724196-107.860992z m-47.067331 98.841395c-19.378349 82.161048-64.299094 157.015828-129.779795 216.33248L509.173991 935.064408 178.658923 635.113564c-65.598861-59.434814-110.499913-134.2699-129.897956-216.430948-13.942958-59.021251-8.212166-92.362252-8.192473-92.578879l0.295402-1.989038c12.800739-144.136316 112.863127-248.767583 237.955882-248.767583 92.303171 0 173.558321 56.717118 212.118084 147.996231l18.137662 42.990788 18.137661-42.990788c37.949266-89.880878 123.497586-147.976537 217.98673-147.976537 125.073062 0 225.155144 104.631267 238.211897 250.63846 0.039387 0.315095 5.770179 33.675789-8.172779 92.69704z" fill="#f1f1f1" p-id="6490"></path></svg>