<?xml version="1.0" standalone="no"?><!DOCTYPE svg PUBLIC "-//W3C//DTD SVG 1.1//EN" "http://www.w3.org/Graphics/SVG/1.1/DTD/svg11.dtd"><svg t="1526960626042" class="icon" style="" viewBox="0 0 1024 1024" version="1.1" xmlns="http://www.w3.org/2000/svg" p-id="6281" xmlns:xlink="http://www.w3.org/1999/xlink" width="40" height="40"><defs><style type="text/css"></style></defs><path d="M777.608533 497.902933l-375.466666-256A17.066667 17.066667 0 1 0 375.466667 256v512a17.0496 17.0496 0 0 0 26.6752 14.097067l375.466666-256a17.066667 17.066667 0 0 0 0-28.194134zM409.6 735.6928V288.3072L737.706667 512 409.6 735.6928z" fill="#f1f1f1" p-id="6282"></path><path d="M512 0C229.6832 0 0 229.6832 0 512s229.6832 512 512 512 512-229.6832 512-512S794.3168 0 512 0z m0 989.866667C248.507733 989.866667 34.133333 775.492267 34.133333 512S248.507733 34.133333 512 34.133333s477.866667 214.3744 477.866667 477.866667-214.3744 477.866667-477.866667 477.866667z" fill="#f1f1f1" p-id="6283"></path></svg>