<?xml version="1.0" standalone="no"?><!DOCTYPE svg PUBLIC "-//W3C//DTD SVG 1.1//EN" "http://www.w3.org/Graphics/SVG/1.1/DTD/svg11.dtd"><svg t="1526960974389" class="icon" style="" viewBox="0 0 1024 1024" version="1.1" xmlns="http://www.w3.org/2000/svg" p-id="7014" xmlns:xlink="http://www.w3.org/1999/xlink" width="40" height="40"><defs><style type="text/css"></style></defs><path d="M955.744 299.383 795.656 459.471c-3.002 3.001-7.505 4.502-11.507 4.502-8.505 0-16.009-7.004-16.009-16.009l0-96.053L640.07 351.911c-66.536 0-98.054 45.525-126.069 99.555-14.508 28.015-27.015 57.031-39.021 85.547-55.53 129.071-120.566 263.145-283.155 263.145L79.763 800.158c-9.005 0-16.009-7.004-16.009-16.009l0-96.053c0-9.005 7.004-16.009 16.009-16.009l112.062 0c66.537 0 98.054-45.525 126.069-99.555 14.508-28.016 27.015-57.031 39.021-85.547 55.53-129.071 120.566-263.145 283.155-263.145l128.07 0 0-96.053c0-9.005 7.004-16.009 16.009-16.009 4.503 0 8.505 2.001 12.007 5.003l159.588 159.587c3.001 3.001 4.502 7.504 4.502 11.506S958.745 296.382 955.744 299.383zM328.399 472.979c-29.016-60.533-61.034-121.066-136.575-121.066L79.763 351.913c-9.005 0-16.009-7.004-16.009-16.009l0-96.053c0-9.005 7.004-16.009 16.009-16.009l112.062 0c89.049 0 154.585 41.523 205.113 112.562C368.921 379.427 348.41 425.953 328.399 472.979zM955.744 747.629 795.656 907.717c-3.002 3.002-7.505 4.503-11.507 4.503-8.505 0-16.009-7.504-16.009-16.009l0-96.053c-148.582 0-240.132 17.51-332.683-112.562 27.515-43.023 48.026-89.55 68.037-136.575 29.017 60.533 61.034 121.066 136.575 121.066l128.07 0 0-96.053c0-9.005 7.004-16.009 16.009-16.009 4.503 0 8.505 2.001 12.007 5.003l159.588 159.588c3.001 3.001 4.502 7.504 4.502 11.506S958.745 744.628 955.744 747.629z" p-id="7015" fill="#f1f1f1"></path></svg>