<?xml version="1.0" standalone="no"?><!DOCTYPE svg PUBLIC "-//W3C//DTD SVG 1.1//EN" "http://www.w3.org/Graphics/SVG/1.1/DTD/svg11.dtd"><svg t="1526960174250" class="icon" style="" viewBox="0 0 1024 1024" version="1.1" xmlns="http://www.w3.org/2000/svg" p-id="6277" xmlns:xlink="http://www.w3.org/1999/xlink" width="40" height="40"><defs><style type="text/css"></style></defs><path d="M876.860952 2.779429a24.502857 24.502857 0 0 0-25.185523 1.536L182.857143 465.554286V24.380952a24.380952 24.380952 0 1 0-48.761905 0v975.238096a24.380952 24.380952 0 1 0 48.761905 0V558.445714l668.818286 461.263238a24.673524 24.673524 0 0 0 25.185523 1.511619A24.380952 24.380952 0 0 0 889.904762 999.619048V24.380952a24.380952 24.380952 0 0 0-13.04381-21.601523zM841.142857 953.197714L201.411048 512 841.142857 70.802286v882.395428z" fill="#f1f1f1" p-id="6278"></path></svg>