<?xml version="1.0" standalone="no"?><!DOCTYPE svg PUBLIC "-//W3C//DTD SVG 1.1//EN" "http://www.w3.org/Graphics/SVG/1.1/DTD/svg11.dtd"><svg t="1526635430550" class="icon" style="" viewBox="0 0 1024 1024" version="1.1" xmlns="http://www.w3.org/2000/svg" p-id="1528" xmlns:xlink="http://www.w3.org/1999/xlink" width="200" height="200"><defs><style type="text/css"></style></defs><path d="M987.428571 506.285714q0 94.857143-34.285714 179.428572l-11.428571 28-105.714286 18.857143q-12.571429 47.428571-51.714286 78T694.857143 841.142857v18.285714q0 8-5.142857 13.142858t-13.142857 5.142857h-36.571429q-8 0-13.142857-5.142857t-5.142857-13.142858V530.285714q0-8 5.142857-13.142857t13.142857-5.142857h36.571429q8 0 13.142857 5.142857t5.142857 13.142857v18.285715q40.571429 0 74.285714 20.285714t53.142857 54.571428l38.857143-6.857142q16.571429-54.285714 16.571429-110.285715 0-84.571429-50.285715-159.428571t-135.142857-119.428572T512 182.857143t-180.285714 44.571428T196.571429 346.857143t-50.285715 159.428571q0 56 16.571429 110.285715l38.857143 6.857142q19.428571-34.285714 53.142857-54.571428T329.142857 548.571429v-18.285715q0-8 5.142857-13.142857t13.142857-5.142857h36.571429q8 0 13.142857 5.142857t5.142857 13.142857v329.142857q0 8-5.142857 13.142858t-13.142857 5.142857h-36.571429q-8 0-13.142857-5.142857t-5.142857-13.142858v-18.285714q-50.285714 0-89.428571-30.571428T188 732.571429l-105.714286-18.857143-11.428571-28Q36.571429 601.142857 36.571429 506.285714q0-86.285714 38.285714-166.285714t102.285714-138.571429T329.142857 108t182.857143-34.857143 182.857143 34.857143 152 93.428571T949.142857 340t38.285714 166.285714z" p-id="1529" fill="#ffffff"></path></svg>